<svg fill="none" height="16" viewBox="0 0 16 16" width="16" xmlns="http://www.w3.org/2000/svg"><path d="m8 14c3.3137 0 6-2.6863 6-6 0-3.31371-2.6863-6-6-6-3.31371 0-6 2.68629-6 6 0 3.3137 2.68629 6 6 6zm0-11c.37372 0 .87543.35608 1.31258 1.31781.09472.20838.1819.43665.26007.68219h-3.1453c.07817-.24554.16535-.47381.26007-.68219.43715-.96173.93886-1.31781 1.31258-1.31781zm-2.22295.90401c-.15091.332-.28277.69979-.39294 1.09599h-1.38448c.52378-.69731 1.22562-1.25323 2.03803-1.60022-.09479.16139-.1817.33062-.26061.50423zm-.61406 2.09599c-.10605.6275-.16299 1.30146-.16299 2s.05694 1.3725.16299 2h-1.74695c-.26759-.61246-.41604-1.2889-.41604-2s.14845-1.38754.41604-2zm.22112 5c.11017.3962.24203.764.39294 1.096.07891.1736.16582.3428.26061.5042-.81241-.347-1.51425-.9029-2.03803-1.6002zm1.04324 0h3.1453c-.07817.2455-.16535.4738-.26007.6822-.43715.9617-.93886 1.3178-1.31258 1.3178s-.87543-.3561-1.31258-1.3178c-.09472-.2084-.1819-.4367-.26007-.6822zm3.39399-1h-3.64268c-.11428-.6108-.17866-1.28604-.17866-2s.06438-1.3892.17866-2h3.64268c.11428.6108.17866 1.28604.17866 2s-.06438 1.3892-.17866 2zm.79456 1h1.3845c-.5238.6973-1.2257 1.2532-2.03806 1.6002.09476-.1614.18166-.3306.26056-.5042.151-.332.2828-.6998.393-1.096zm1.9681-1h-1.747c.1061-.6275.163-1.30146.163-2s-.0569-1.3725-.163-2h1.747c.2676.61246.416 1.2889.416 2s-.1484 1.38754-.416 2zm-2.62166-6.60022c.81236.34699 1.51426.90291 2.03806 1.60022h-1.3845c-.1102-.3962-.242-.76399-.393-1.09599-.0789-.17361-.1658-.34284-.26056-.50423z" fill="#212121"/></svg>